<svg version="1.1" id="Layer_1" xmlns="http://www.w3.org/2000/svg" xmlns:xlink="http://www.w3.org/1999/xlink" x="0px" y="0px"
	 width="100%" viewBox="0 0 878 853" enable-background="new 0 0 878 853" xml:space="preserve">
<path fill="#FEFEFE" opacity="1.000000" stroke="none" 
	d="
M495.000000,854.000000 
	C331.500061,854.000000 168.500076,853.984924 5.500208,854.093811 
	C1.751130,854.096313 0.905379,853.249634 0.906738,849.500061 
	C1.008714,568.166870 1.008710,286.833649 0.906835,5.500434 
	C0.905478,1.752247 1.749470,0.905396 5.499630,0.906713 
	C295.166168,1.008479 584.832764,1.008455 874.499268,0.906909 
	C878.246826,0.905595 879.094788,1.748538 879.093384,5.499369 
	C878.991272,286.832581 878.991333,568.165833 879.093079,849.499023 
	C879.094421,853.245972 878.252686,854.097839 874.500854,854.094421 
	C748.167297,853.980591 621.833618,854.000000 495.000000,854.000000 
z"/>
<path fill="#373737" opacity="1.000000" stroke="none" 
	d="
M613.401245,587.734314 
	C613.617676,588.439026 613.679382,588.899231 613.628174,589.692505 
	C612.700500,592.112549 613.012939,594.298035 613.011047,596.442200 
	C612.988464,622.203857 613.005310,647.965454 612.981384,673.727112 
	C612.979370,675.871887 613.294006,678.053284 612.276794,680.555786 
	C592.841797,687.267212 573.125671,691.261841 553.319885,694.817261 
	C494.186798,705.432312 434.577332,708.223206 374.680450,704.817139 
	C325.870087,702.041504 277.667694,695.150085 230.305725,681.176514 
	C228.494064,679.063477 229.029678,676.813660 229.026672,674.699707 
	C228.990540,649.389160 229.007874,624.078613 228.995438,598.768005 
	C228.994461,596.774658 229.166367,594.770569 228.588989,592.366699 
	C227.883835,585.435791 227.897598,585.386230 234.350388,587.177490 
	C287.935608,602.052673 342.660034,608.860901 398.136963,610.408875 
	C464.400085,612.257935 529.913818,606.677673 594.382568,590.702026 
	C600.028503,589.302917 605.626892,587.711487 611.634033,586.242065 
	C612.488159,586.620483 612.919067,587.002930 613.401245,587.734314 
z"/>
<path fill="#383838" opacity="1.000000" stroke="none" 
	d="
M530.015381,345.817871 
	C531.178406,346.782288 532.354187,346.757355 533.509644,346.933197 
	C544.487244,348.603577 551.279236,354.942139 553.602600,365.618134 
	C557.785400,384.838470 544.582092,414.621613 526.555054,422.619171 
	C518.466125,426.207794 515.014221,431.483032 511.794098,438.717041 
	C502.926270,458.638367 490.423218,476.006317 472.628906,488.951843 
	C438.043823,514.112732 391.373962,509.789032 360.914032,479.058075 
	C347.094666,465.115784 337.054657,448.808350 329.829041,430.687775 
	C328.699585,427.855286 327.356110,425.944427 324.163208,425.267548 
	C319.334167,424.243805 315.141235,421.623871 311.626953,418.303406 
	C297.571198,405.022888 290.295746,388.706085 291.116211,369.256805 
	C291.605469,357.659424 297.887726,350.377289 309.382385,347.288818 
	C311.479828,346.725250 311.995880,345.909210 311.992737,343.972626 
	C311.951447,318.475708 311.908691,292.978455 312.029724,267.482056 
	C312.043304,264.623383 310.490997,263.840332 308.433624,262.929016 
	C271.531708,246.583817 271.890442,203.319977 287.122040,182.093582 
	C301.728851,161.737885 328.998779,154.065811 354.167114,164.347153 
	C358.934204,166.294510 360.702820,165.862000 363.538879,161.294342 
	C390.729858,117.501495 453.835510,118.575287 480.112640,163.145493 
	C481.873199,166.131683 483.251312,166.402664 486.352386,165.218597 
	C503.378082,158.717743 520.575012,157.480621 537.136536,166.296295 
	C556.516113,176.611984 565.223877,193.541351 564.970520,215.161102 
	C564.719543,236.570435 555.182678,252.550873 535.772705,261.950409 
	C531.619324,263.961700 530.446228,266.188721 530.479614,270.561676 
	C530.666504,295.056519 530.540283,319.553741 530.370239,344.494629 
	C529.864319,345.075958 529.707581,345.325928 530.015381,345.817871 
z"/>
<path fill="#383838" opacity="1.000000" stroke="none" 
	d="
M254.074188,461.415894 
	C256.446198,460.082794 258.429291,458.837646 260.524841,457.825287 
	C265.482178,455.430389 270.822845,456.699432 273.600250,461.413147 
	C282.893402,477.185120 291.948792,493.096954 301.192230,508.898499 
	C302.310394,510.810028 301.946198,511.837311 300.287903,513.004517 
	C284.363525,524.213196 268.443268,535.428223 252.592560,546.740479 
	C250.629715,548.141174 249.967651,547.027100 249.190933,545.679016 
	C239.052460,528.082275 228.804276,510.546814 218.876083,492.832092 
	C215.837875,487.411011 217.896790,482.520996 223.716476,479.004089 
	C231.334656,474.400330 231.310532,474.414276 226.801559,466.621002 
	C218.219131,451.787170 209.592834,436.977631 201.177902,422.049133 
	C199.819885,419.639923 198.387939,418.887115 195.728653,418.921753 
	C182.733200,419.091064 169.733353,418.938782 156.738510,419.132874 
	C149.693726,419.238129 144.880478,416.473602 141.349442,410.222992 
	C129.069305,388.484711 116.446243,366.940369 103.999954,345.295624 
	C98.337570,335.448456 100.888283,325.805237 110.666183,320.129150 
	C132.980728,307.175415 155.315033,294.255554 177.669312,281.370514 
	C187.763687,275.552094 197.356064,278.130829 203.202972,288.206116 
	C215.733902,309.799164 228.096680,331.491058 240.795090,352.984863 
	C244.708221,359.608307 243.936951,365.446228 240.191360,371.671173 
	C233.754929,382.368256 227.639908,393.258453 221.234879,403.974854 
	C219.666733,406.598572 219.827744,408.580139 221.370239,411.207214 
	C230.640869,426.996307 239.669922,442.927094 248.896362,458.742462 
	C249.853470,460.383057 250.222046,463.915344 254.074188,461.415894 
z"/>
<path fill="#383838" opacity="1.000000" stroke="none" 
	d="
M627.624695,321.562653 
	C634.885254,309.006592 641.894226,296.727142 649.047668,284.532440 
	C651.981506,279.531036 656.719727,277.465546 661.648987,278.612000 
	C666.516541,279.744080 670.003174,283.812469 670.449768,288.860779 
	C670.746277,292.211975 669.246399,294.960236 667.643921,297.730927 
	C654.735840,320.048645 641.853760,342.381439 628.991150,364.725403 
	C625.839294,370.200531 626.398804,374.172272 630.576050,376.971100 
	C634.812195,379.809387 639.454956,378.694641 642.325867,373.777252 
	C653.905884,353.942444 665.379578,334.045532 676.887390,314.168610 
	C678.888977,310.711395 680.786133,307.191010 682.872864,303.786438 
	C686.346252,298.119781 692.548950,296.515289 697.919617,299.775604 
	C703.021057,302.872467 704.544250,308.951660 701.306458,314.596680 
	C688.148315,337.537598 674.928101,360.443146 661.639954,383.308990 
	C659.556396,386.894348 658.452576,390.347229 661.204041,393.931671 
	C665.151123,399.073639 671.796692,398.174347 675.403198,391.976318 
	C683.854919,377.451385 692.224609,362.878784 700.626465,348.324890 
	C705.370422,340.107361 710.065613,331.861328 714.869385,323.678894 
	C718.859070,316.882996 725.358215,314.771667 731.251282,318.213776 
	C737.034668,321.591827 738.375977,328.308258 734.431519,335.166168 
	C718.176880,363.426483 701.791199,391.611725 685.623413,419.921509 
	C681.082153,427.873260 673.868713,430.720154 665.489319,431.954712 
	C657.049927,433.198090 648.537964,432.996399 640.052856,433.194061 
	C636.532532,433.276062 634.355103,434.464203 632.579529,437.671661 
	C626.212402,449.173889 619.637329,460.566589 612.867432,471.836487 
	C611.077698,474.815918 611.627502,476.168579 614.538452,477.385468 
	C615.908142,477.958038 617.167908,478.819489 618.424133,479.632568 
	C623.534790,482.940521 625.237549,488.198242 622.258484,493.454620 
	C612.581604,510.528595 602.659424,527.463440 592.880615,544.479980 
	C591.828552,546.310669 591.059631,546.672302 589.118286,545.304626 
	C573.338684,534.187561 557.487671,523.171143 541.583923,512.232178 
	C539.464294,510.774261 539.801880,509.621399 540.882690,507.765167 
	C549.677612,492.659515 558.330261,477.470947 567.153564,462.381989 
	C570.478882,456.695160 575.909119,455.319611 581.698242,458.363037 
	C583.166992,459.135162 584.678101,459.894348 585.977173,460.906616 
	C588.231995,462.663574 589.285461,461.764709 590.523499,459.589600 
	C597.352295,447.592377 604.242981,435.628387 611.301636,423.765594 
	C612.753052,421.326355 612.254150,419.443878 611.124634,417.290741 
	C607.491638,410.365723 603.795715,403.470978 600.315247,396.469513 
	C595.320923,386.422852 594.932800,376.856598 601.336609,366.743835 
	C610.586609,352.136444 618.784485,336.862762 627.624695,321.562653 
z"/>
<path fill="#393939" opacity="1.000000" stroke="none" 
	d="
M92.998512,552.961121 
	C76.705200,543.227417 59.807587,535.093933 45.899647,522.352478 
	C30.530527,508.272400 19.035635,491.902924 15.634027,470.831604 
	C13.166809,455.548462 15.722863,441.049988 22.538376,427.152313 
	C24.187481,423.789551 25.491243,423.269592 28.719633,425.161438 
	C47.381611,436.097382 66.149376,446.852783 84.882111,457.667999 
	C136.922363,487.713074 188.965622,517.752930 240.989151,547.826904 
	C242.360260,548.619507 244.126373,548.983032 245.007507,550.993347 
	C230.863434,560.879639 216.697601,570.752686 202.575699,580.688171 
	C200.826309,581.918945 199.586563,581.210876 198.066193,580.307617 
	C192.344498,576.908752 186.476624,573.749817 180.829681,570.234131 
	C178.423157,568.735840 177.217331,568.934509 175.872070,571.474060 
	C173.304276,576.321228 170.488434,581.040710 167.676498,585.754089 
	C164.505127,591.069946 160.822433,592.119202 155.587952,589.104858 
	C134.815628,577.142639 114.075905,565.123901 92.998512,552.961121 
z"/>
<path fill="#393939" opacity="1.000000" stroke="none" 
	d="
M675.911743,588.180054 
	C672.384644,582.311340 668.995483,576.779053 665.857483,571.107727 
	C664.683533,568.986023 663.697449,568.764221 661.660828,569.988525 
	C655.815918,573.502136 649.840088,576.797363 643.936523,580.214417 
	C642.472900,581.061523 641.199280,581.966125 639.408020,580.705933 
	C625.290100,570.773499 611.129578,560.901733 596.368835,550.582581 
	C603.756226,546.260803 610.569153,542.229004 617.424866,538.271545 
	C682.275269,500.837006 747.166382,463.472534 811.917908,425.867737 
	C816.527405,423.190765 818.066284,423.977814 820.079956,428.474548 
	C833.844421,459.212311 827.353394,486.581573 806.547546,511.581696 
	C794.854065,525.632507 779.783264,535.354126 764.075012,544.298889 
	C738.477600,558.874817 713.014221,573.686584 687.540161,588.477905 
	C683.620972,590.753540 679.944824,591.972534 675.911743,588.180054 
z"/>
<path fill="#393939" opacity="1.000000" stroke="none" 
	d="
M422.009277,551.105713 
	C396.822418,550.532532 373.243286,545.910767 352.185852,532.094788 
	C351.489929,531.638245 350.841827,531.096252 350.111084,530.707520 
	C346.933716,529.017395 345.024719,524.286133 341.463715,524.801941 
	C338.367462,525.250427 335.656067,528.438965 332.800659,530.453552 
	C312.821259,544.550110 292.819977,558.616150 272.907806,572.807129 
	C270.244232,574.705444 267.872528,575.362061 264.621704,574.397522 
	C257.778778,572.367249 250.802887,570.785034 243.886810,569.020203 
	C244.250336,566.940186 245.884033,566.535522 247.043976,565.716125 
	C278.305542,543.631165 309.585632,521.572327 340.861389,499.507477 
	C342.663513,498.236115 344.024536,496.340942 346.401733,499.334503 
	C360.478638,517.061157 379.970215,525.218506 401.497894,528.688599 
	C427.078033,532.811890 451.973145,530.277710 475.218811,517.751953 
	C483.539185,513.268616 490.660675,507.304169 496.328705,499.729614 
	C497.753754,497.825195 498.574280,497.022095 500.950226,498.690125 
	C533.505432,521.545837 566.142273,544.285400 598.749939,567.066467 
	C598.996521,567.238770 599.117432,567.591187 599.579224,568.281128 
	C591.536255,571.045898 583.375427,572.812500 575.273621,574.779358 
	C573.356750,575.244690 572.211426,573.784241 570.876770,572.854431 
	C549.168762,557.731750 527.412292,542.677429 505.819366,527.392029 
	C502.717987,525.196655 501.047546,524.902710 498.007660,527.696411 
	C482.632843,541.826050 463.515320,547.146362 443.442963,549.963074 
	C436.497253,550.937805 429.509796,551.168884 422.009277,551.105713 
z"/>
<path fill="#393939" opacity="1.000000" stroke="none" 
	d="
M630.632446,641.320801 
	C629.126587,636.454407 630.877075,635.316162 635.354980,635.348694 
	C661.142090,635.536072 686.931396,635.426208 712.719910,635.417175 
	C714.489807,635.416565 716.259705,635.416992 719.381714,635.416992 
	C714.652771,639.826782 710.877258,643.390137 707.055664,646.903381 
	C695.065674,657.925842 683.157593,669.041138 670.989441,679.863708 
	C667.847534,682.658203 668.342834,684.041260 671.160767,686.593079 
	C685.942444,699.978882 700.540649,713.567261 715.367737,727.384460 
	C714.744019,730.106323 712.297607,729.465393 710.341309,730.499146 
	C709.564453,730.743286 709.106689,730.808228 708.312500,730.775635 
	C705.767517,729.576355 703.393005,730.018372 701.090820,730.016907 
	C657.956848,729.989258 614.822937,729.992432 571.688965,730.001648 
	C565.214905,730.002991 558.756653,728.855225 552.022705,730.164795 
	C549.628418,725.354614 551.193542,719.905518 550.914124,714.566528 
	C550.779602,711.994873 553.422607,712.860107 554.755554,712.604797 
	C579.352783,707.894348 603.669800,702.041870 627.707703,695.021301 
	C628.342041,694.836060 628.961975,694.601562 629.943604,694.225830 
	C630.861877,693.046875 631.307007,692.041138 631.257812,690.800110 
	C630.608948,674.442871 631.380127,658.071960 630.632446,641.320801 
z"/>
<path fill="#393939" opacity="1.000000" stroke="none" 
	d="
M129.014160,725.527954 
	C143.065811,712.191345 156.841263,699.212524 170.847717,686.488037 
	C173.790710,683.814392 173.854553,682.511414 170.857468,679.816833 
	C155.537735,666.043335 140.443817,652.018677 125.248833,638.106079 
	C124.649857,637.557678 123.825928,637.254883 123.106804,636.837708 
	C123.307129,636.404419 123.507454,635.971191 123.707779,635.537903 
	C151.832794,635.537903 179.957825,635.537903 208.530258,635.686646 
	C210.779175,637.862549 210.882263,640.482178 210.884781,642.878662 
	C210.901550,658.772156 211.416611,674.670471 211.011169,690.857300 
	C211.446899,693.732483 212.929672,694.712524 215.312775,695.392456 
	C238.352676,701.965393 261.563080,707.824219 285.162811,712.005188 
	C289.437134,712.762390 292.072784,713.820557 291.219757,718.992615 
	C290.630859,722.563232 291.011871,726.293823 290.611450,730.259033 
	C289.796570,729.336670 288.715424,729.470520 287.748718,729.502747 
	C253.684647,730.637695 219.611053,729.736389 185.542740,729.974243 
	C167.920746,730.097229 150.296677,730.061951 132.674866,729.915894 
	C130.573105,729.898499 126.182053,731.081421 129.014160,725.527954 
z"/>
<path fill="#2A2A2A" opacity="1.000000" stroke="none" 
	d="
M128.913818,725.265198 
	C128.079620,729.404541 130.863617,729.031677 133.708664,729.029236 
	C183.626404,728.986694 233.544235,728.988647 283.461975,729.029968 
	C285.559418,729.031677 287.800903,728.364197 290.006836,730.178223 
	C288.777466,730.660828 287.291504,730.839783 285.805511,730.840149 
	C232.788071,730.852478 179.770645,730.850647 126.753212,730.825500 
	C125.846016,730.825073 124.805237,731.296997 123.614464,729.952393 
	C125.281830,728.452698 126.950676,726.951721 128.913818,725.265198 
z"/>
<path fill="#2A2A2A" opacity="1.000000" stroke="none" 
	d="
M552.244202,730.699585 
	C552.857788,728.417664 554.892395,729.023376 556.630798,729.022400 
	C605.610229,728.996460 654.589661,728.995544 703.569092,729.028076 
	C704.976196,729.029053 706.613770,728.421936 707.850342,730.311279 
	C692.503113,730.737000 677.030151,730.840210 661.557129,730.846069 
	C625.276245,730.859741 588.995361,730.826904 552.244202,730.699585 
z"/>
<path fill="#2A2A2A" opacity="1.000000" stroke="none" 
	d="
M612.421753,680.942871 
	C612.003235,652.486267 611.987427,624.015259 612.039551,595.544373 
	C612.042725,593.805542 611.302246,591.867798 613.166260,590.172974 
	C613.573914,619.799988 613.632263,649.574524 613.693970,679.348999 
	C613.695435,680.040588 613.584717,680.650574 612.421753,680.942871 
z"/>
<path fill="#2A2A2A" opacity="1.000000" stroke="none" 
	d="
M228.306671,592.408569 
	C228.980087,591.927063 229.275116,589.909729 229.927658,591.503235 
	C230.392044,592.637268 230.000565,594.119446 230.000519,595.446289 
	C229.999573,623.642151 229.999954,651.837952 229.998566,680.500244 
	C226.751434,680.709473 228.277573,678.180969 228.272797,676.781189 
	C228.177567,648.812012 228.209473,620.842529 228.306671,592.408569 
z"/>
<path fill="#2A2A2A" opacity="1.000000" stroke="none" 
	d="
M630.364380,641.393311 
	C631.022583,640.923096 631.887695,638.951355 631.896790,640.482056 
	C632.000549,658.013672 631.825317,675.546997 631.691101,693.079590 
	C631.689331,693.305237 631.253235,693.527527 630.659180,693.906555 
	C630.289185,676.660522 630.279785,659.259399 630.364380,641.393311 
z"/>
<path fill="#2A2A2A" opacity="1.000000" stroke="none" 
	d="
M211.504883,690.744324 
	C209.206177,689.789246 210.039139,687.588928 210.030472,685.728271 
	C209.964142,671.488098 209.976105,657.247437 210.008667,643.007080 
	C210.013626,640.838257 209.954254,638.712891 209.026306,636.263062 
	C212.608887,635.165344 211.604065,637.920227 211.609009,639.620789 
	C211.658112,656.524902 211.626389,673.429260 211.504883,690.744324 
z"/>
<path fill="#2A2A2A" opacity="1.000000" stroke="none" 
	d="
M710.369934,730.758423 
	C710.649292,728.028564 713.550964,729.488220 715.181580,727.850342 
	C716.630920,728.309631 717.707520,728.954224 718.352356,730.838562 
	C715.505188,730.838562 713.111450,730.838562 710.369934,730.758423 
z"/>
<path fill="#2A2A2A" opacity="1.000000" stroke="none" 
	d="
M613.650452,587.650513 
	C612.844849,587.858704 612.217285,587.636292 612.060364,586.532104 
	C613.237793,585.566589 613.623962,586.226135 613.650452,587.650513 
z"/>
<path fill="#2A2A2A" opacity="1.000000" stroke="none" 
	d="
M530.319702,345.678680 
	C529.929749,345.756073 529.304626,345.740936 530.029175,345.034485 
	C530.276367,345.102417 530.333252,345.265747 530.319702,345.678680 
z"/>
<path fill="#FEFEFE" opacity="1.000000" stroke="none" 
	d="
M394.495575,211.677521 
	C389.865173,200.838593 385.195679,190.173920 380.270844,179.628479 
	C378.995880,176.898453 379.170044,174.840240 380.695435,172.295410 
	C395.450256,147.679550 428.935730,142.630142 450.169952,161.914108 
	C451.401733,163.032776 452.578979,164.212143 453.768616,165.376480 
	C463.322784,174.727432 469.869812,184.807022 462.162567,198.575378 
	C461.505249,199.749619 460.757050,201.253204 461.479675,203.372711 
	C468.151947,199.182541 474.625824,194.974670 481.240448,191.001160 
	C488.531616,186.621262 496.060638,182.687790 504.482269,180.889374 
	C520.859497,177.392044 536.218994,185.766129 542.211121,201.410629 
	C548.078857,216.730225 541.910522,234.753876 528.032227,242.756439 
	C523.402466,245.426086 518.500305,247.505020 513.402283,249.089645 
	C510.876038,249.874878 509.773438,251.139145 509.871735,254.072006 
	C510.133728,261.892365 509.812042,269.731110 510.005920,277.555511 
	C510.079773,280.536346 509.215851,281.282623 506.339752,280.774048 
	C470.434265,274.424530 434.230225,272.696838 397.856445,274.207397 
	C377.550568,275.050659 357.346344,277.142853 337.325562,280.690430 
	C333.556854,281.358215 332.354462,280.645172 332.523773,276.649689 
	C332.840912,269.166443 332.499725,261.657227 332.703186,254.166183 
	C332.778992,251.374329 331.887207,249.991150 329.247528,249.053680 
	C323.125153,246.879318 317.131409,244.286255 311.843506,240.459457 
	C297.808441,230.302444 294.009979,212.186310 302.544434,196.863098 
	C310.832520,181.982224 329.411682,175.583405 345.304230,182.402283 
	C356.989166,187.415833 367.261444,194.898102 377.853943,201.795746 
	C383.015594,205.156937 388.136169,208.581329 393.624268,212.004257 
	C394.250031,212.409760 394.369812,212.337097 394.495575,211.677521 
z"/>
<path fill="#FEFEFE" opacity="1.000000" stroke="none" 
	d="
M417.774902,334.052185 
	C420.090179,334.447693 422.053955,334.543335 424.420471,334.506134 
	C429.940277,333.768738 435.058716,333.809265 440.579834,334.549408 
	C457.569458,336.018372 474.172638,337.060974 490.654999,339.512054 
	C494.040161,340.015472 495.064545,341.156281 494.917816,344.506927 
	C494.641296,350.823334 494.724091,357.161377 494.836151,363.487274 
	C494.969666,371.027557 498.405121,375.855682 504.510101,377.453247 
	C510.398773,378.994202 515.218506,376.558929 519.157959,369.934631 
	C520.316406,367.986664 521.591431,366.149811 524.084595,366.356476 
	C526.807678,366.582214 528.614990,368.274841 529.491028,370.863831 
	C529.805847,371.794434 530.087158,372.768494 530.169556,373.740845 
	C531.456482,388.924438 519.779724,405.699585 505.067230,409.483215 
	C500.683624,410.610565 498.315857,413.208710 496.884583,417.302856 
	C491.508820,432.680084 484.120789,446.933807 472.924622,458.969574 
	C441.764282,492.466492 397.417694,490.770203 368.728912,455.025146 
	C359.886353,444.007660 353.309326,431.738373 348.750305,418.423004 
	C346.815063,412.770844 343.433960,409.434753 337.431824,408.722626 
	C332.947784,408.190613 329.257660,406.058105 326.395447,402.538391 
	C321.430603,396.432861 317.304993,389.827087 314.682922,382.374634 
	C313.434753,378.827118 313.176514,375.171570 314.859528,371.672058 
	C316.000000,369.300751 317.895325,367.676727 320.635956,367.450134 
	C323.404236,367.221222 324.668915,369.106445 325.944702,371.212311 
	C331.862122,380.979858 342.414886,382.005432 348.144165,373.476349 
	C349.695953,371.166168 350.258820,368.617645 350.283203,365.909546 
	C350.347687,358.750305 350.621033,351.581299 350.333588,344.435394 
	C350.186615,340.781860 351.334808,339.556824 354.904877,339.114777 
	C369.945709,337.252258 385.017822,335.831665 400.583832,334.913269 
	C406.393158,332.982697 411.992676,334.701050 417.774902,334.052185 
z"/>
<path fill="#FBFBFB" opacity="1.000000" stroke="none" 
	d="
M446.962646,293.959778 
	C467.256775,294.933868 486.917480,297.196075 506.497101,300.289001 
	C509.201324,300.716156 510.136597,301.673126 510.005432,304.411835 
	C509.790558,308.897552 509.755646,313.414062 510.031525,317.893768 
	C510.235199,321.200653 509.184113,321.711517 506.076019,321.185089 
	C485.547119,317.708221 464.877167,315.549591 444.065033,314.582336 
	C408.163605,312.913788 372.524078,315.313629 337.115173,321.205139 
	C332.980591,321.893066 332.261963,320.762756 332.533569,317.126923 
	C332.793427,313.648560 332.902985,310.104431 332.533447,306.647461 
	C332.071075,302.321564 333.582214,300.685669 337.968750,300.008057 
	C373.949799,294.449921 410.093262,292.182800 446.962646,293.959778 
z"/>
<path fill="#2A2A2A" opacity="1.000000" stroke="none" 
	d="
M417.869019,333.995667 
	C412.731201,334.537689 407.335968,334.723358 401.478821,334.849976 
	C401.206665,333.949677 401.580353,333.082550 402.512604,333.106995 
	C407.546722,333.238861 412.622528,332.280548 417.869019,333.995667 
z"/>
<path fill="#2A2A2A" opacity="1.000000" stroke="none" 
	d="
M440.865784,334.385590 
	C435.859283,334.720856 430.737183,334.681030 425.219177,334.507233 
	C430.079987,331.957764 435.404175,332.505157 440.865784,334.385590 
z"/>
<path fill="#2A2A2A" opacity="1.000000" stroke="none" 
	d="
M529.529907,265.464081 
	C529.561401,265.523743 529.498413,265.404419 529.529907,265.464081 
z"/>
<path fill="#F6F6F6" opacity="1.000000" stroke="none" 
	d="
M206.359680,339.134552 
	C201.081711,344.638611 195.584747,345.119568 191.428757,340.744354 
	C187.472488,336.579376 187.849091,330.250854 192.268524,326.631836 
	C195.504227,323.982178 200.486572,323.858490 203.865768,326.344055 
	C207.675461,329.146301 208.591492,333.376282 206.359680,339.134552 
z"/>
<path fill="#F6F6F6" opacity="1.000000" stroke="none" 
	d="
M131.223938,348.850952 
	C125.040398,347.005249 122.341080,343.961945 122.487526,339.192017 
	C122.625679,334.692017 125.009827,331.503326 129.170227,330.229858 
	C133.529129,328.895630 137.406708,330.206329 140.062241,334.159851 
	C144.228775,340.362823 139.452286,349.494720 131.223938,348.850952 
z"/>
<path fill="#F6F6F6" opacity="1.000000" stroke="none" 
	d="
M166.437744,356.589355 
	C162.611938,353.395691 161.917923,349.493622 163.397385,345.502563 
	C164.668091,342.074615 167.466232,339.891663 171.378922,339.615112 
	C175.416428,339.329681 178.567032,340.853149 180.559418,344.375031 
	C182.906601,348.524048 182.256470,352.547150 178.998734,355.811432 
	C175.353760,359.463745 171.082947,359.597900 166.437744,356.589355 
z"/>
<path fill="#F6F6F6" opacity="1.000000" stroke="none" 
	d="
M176.004242,304.090515 
	C179.285751,299.939240 183.177902,298.775635 187.723633,300.640259 
	C191.672760,302.260101 193.629089,305.482208 193.464767,309.684662 
	C193.290741,314.135590 190.814651,317.119537 186.586609,318.483459 
	C182.906189,319.670685 179.597763,318.696075 177.066559,315.891205 
	C173.969498,312.459290 173.489929,308.541687 176.004242,304.090515 
z"/>
<path fill="#F6F6F6" opacity="1.000000" stroke="none" 
	d="
M139.387207,357.503784 
	C144.629410,353.779633 149.267654,353.606720 152.774399,357.005066 
	C156.122543,360.249695 156.848221,364.177612 154.838379,368.416870 
	C152.965271,372.367798 148.225571,374.399750 143.902298,373.291626 
	C137.098038,371.547577 134.959702,364.622314 139.387207,357.503784 
z"/>
<path fill="#F6F6F6" opacity="1.000000" stroke="none" 
	d="
M156.438690,333.762878 
	C151.041626,332.382324 148.446030,329.070404 148.530304,323.961853 
	C148.604294,319.475891 151.104309,316.457031 155.360306,315.210876 
	C159.646896,313.955750 163.241394,315.358215 165.857208,318.959015 
	C168.006210,321.917236 168.144043,325.293610 166.597198,328.418152 
	C164.670746,332.309448 161.322220,334.266815 156.438690,333.762878 
z"/>
<path fill="#F6F6F6" opacity="1.000000" stroke="none" 
	d="
M189.159119,364.605347 
	C194.869614,367.528259 196.962769,370.995697 195.880905,375.747223 
	C194.839569,380.320740 191.795654,382.963898 187.146942,383.310822 
	C182.673019,383.644714 179.560242,381.382019 177.707062,377.357300 
	C174.990829,371.458221 180.202454,362.552551 189.159119,364.605347 
z"/>
<path fill="#F6F6F6" opacity="1.000000" stroke="none" 
	d="
M160.105865,398.278992 
	C154.781738,397.597076 151.857162,394.753540 151.127747,389.937103 
	C150.523438,385.946655 152.214279,382.770752 155.648514,380.684265 
	C159.289093,378.472382 162.973434,378.661774 166.362976,381.220673 
	C169.766357,383.790070 170.907318,387.373444 169.757141,391.399780 
	C168.470383,395.904266 165.182144,398.123169 160.105865,398.278992 
z"/>
<path fill="#F6F6F6" opacity="1.000000" stroke="none" 
	d="
M218.831512,365.983093 
	C213.029388,369.553192 207.715347,368.739197 204.536942,364.112457 
	C201.741806,360.043671 202.748032,354.245514 206.777710,351.200256 
	C210.819611,348.145721 216.408539,348.761597 219.791504,352.634277 
	C223.032257,356.344147 222.811844,360.621613 218.831512,365.983093 
z"/>
<path fill="#FDFDFD" opacity="1.000000" stroke="none" 
	d="
M139.309357,504.662476 
	C153.314117,512.743652 166.948257,520.735168 180.729660,528.463989 
	C183.785339,530.177673 184.755157,531.381775 182.711868,534.763428 
	C175.662552,546.429993 168.896164,558.269104 162.132507,570.105713 
	C159.911102,573.993164 157.148132,574.521057 153.436432,572.370728 
	C126.534004,556.785217 99.434853,541.529175 72.763405,525.558594 
	C53.915958,514.272949 39.173866,498.930267 31.535139,477.811279 
	C27.919775,467.815796 27.539862,457.684784 31.525066,447.538605 
	C32.790394,444.317108 33.830021,443.638611 37.077400,445.532959 
	C65.231812,461.956696 93.493744,478.196106 121.722580,494.492249 
	C127.481369,497.816742 133.235535,501.149261 139.309357,504.662476 
z"/>
<path fill="#FDFDFD" opacity="1.000000" stroke="none" 
	d="
M752.121948,476.082153 
	C769.875488,465.845825 787.370850,455.891602 804.668884,445.605408 
	C808.307495,443.441681 809.310608,444.603912 810.557739,447.839386 
	C814.890625,459.080566 813.792297,470.134308 809.283630,480.904388 
	C800.574280,501.709106 785.102417,516.440613 765.985535,527.607605 
	C740.721008,542.365601 715.331787,556.910095 689.999207,571.551636 
	C684.031189,575.000977 682.410339,574.581177 678.913635,568.546631 
	C672.412048,557.326233 666.028870,546.035156 659.368774,534.909851 
	C657.516052,531.814941 657.688965,530.497925 661.056213,528.575989 
	C691.379517,511.268524 721.566528,493.722260 752.121948,476.082153 
z"/>
<path fill="#383838" opacity="1.000000" stroke="none" 
	d="
M394.453735,211.588318 
	C394.885620,211.999863 395.395111,212.662384 394.056915,212.255646 
	C393.973175,212.031403 394.277649,211.717804 394.453735,211.588318 
z"/>
</svg>